<svg width="973" height="973" viewBox="0 0 973 973" fill="none" xmlns="http://www.w3.org/2000/svg">
<rect width="973" height="973" fill="#00011A"/>
<rect x="100" y="737" width="350" height="100" transform="rotate(-90 100 737)" fill="white"/>
<path d="M381.984 237H488.403L306.417 737H200L381.984 237Z" fill="#1500FF"/>
<path d="M591.388 737H484.969L666.955 237H773.372L591.388 737Z" fill="white"/>
<g filter="url(#filter0_d_96_2)">
<path d="M552.606 737H446.188L264.203 237H370.62L552.606 737Z" fill="white"/>
</g>
<g filter="url(#filter1_d_96_2)">
<path d="M709.603 737H603.184L421.199 237H527.616L709.603 737Z" fill="#1500FF"/>
</g>
<rect x="873" y="387" width="350" height="100" transform="rotate(90 873 387)" fill="#1500FF"/>
<rect x="773" y="237" width="100" height="100" fill="#1500FF"/>
<rect x="101" y="237" width="100" height="100" fill="white"/>
<defs>
<filter id="filter0_d_96_2" x="180.203" y="43" width="388.402" height="694" filterUnits="userSpaceOnUse" color-interpolation-filters="sRGB">
<feFlood flood-opacity="0" result="BackgroundImageFix"/>
<feColorMatrix in="SourceAlpha" type="matrix" values="0 0 0 0 0 0 0 0 0 0 0 0 0 0 0 0 0 0 127 0" result="hardAlpha"/>
<feOffset dx="-34" dy="-144"/>
<feGaussianBlur stdDeviation="25"/>
<feComposite in2="hardAlpha" operator="out"/>
<feColorMatrix type="matrix" values="0 0 0 0 0 0 0 0 0 0 0 0 0 0 0 0 0 0 0.5 0"/>
<feBlend mode="normal" in2="BackgroundImageFix" result="effect1_dropShadow_96_2"/>
<feBlend mode="normal" in="SourceGraphic" in2="effect1_dropShadow_96_2" result="shape"/>
</filter>
<filter id="filter1_d_96_2" x="416.199" y="237" width="388.402" height="714" filterUnits="userSpaceOnUse" color-interpolation-filters="sRGB">
<feFlood flood-opacity="0" result="BackgroundImageFix"/>
<feColorMatrix in="SourceAlpha" type="matrix" values="0 0 0 0 0 0 0 0 0 0 0 0 0 0 0 0 0 0 127 0" result="hardAlpha"/>
<feOffset dx="45" dy="164"/>
<feGaussianBlur stdDeviation="25"/>
<feComposite in2="hardAlpha" operator="out"/>
<feColorMatrix type="matrix" values="0 0 0 0 0 0 0 0 0 0 0 0 0 0 0 0 0 0 0.5 0"/>
<feBlend mode="normal" in2="BackgroundImageFix" result="effect1_dropShadow_96_2"/>
<feBlend mode="normal" in="SourceGraphic" in2="effect1_dropShadow_96_2" result="shape"/>
</filter>
</defs>
</svg>
